<?xml version="1.0" standalone="no"?>
<!DOCTYPE svg PUBLIC "-//W3C//DTD SVG 20010904//EN"
 "http://www.w3.org/TR/2001/REC-SVG-20010904/DTD/svg10.dtd">
<svg version="1.0" xmlns="http://www.w3.org/2000/svg"
 width="256.000000pt" height="256.000000pt" viewBox="0 0 256.000000 256.000000" fill="currentColor"
 preserveAspectRatio="xMidYMid meet">

<g transform="translate(0.000000,256.000000) scale(0.100000,-0.100000)" stroke="none">
<path d="M60 2445 l0 -115 28 -6 c68 -15 97 -29 137 -68 78 -75 75 -37 75
-990 0 -562 -4 -854 -11 -879 -19 -71 -112 -149 -201 -171 l-28 -6 0 -105 0
-105 738 0 c882 1 964 6 1217 87 147 46 234 94 314 173 81 81 126 162 151 277
25 111 25 205 0 316 -41 186 -162 342 -330 424 -82 41 -169 70 -237 80 -48 7
-40 28 23 60 68 34 176 139 223 217 112 187 134 414 56 581 -56 119 -222 248
-388 302 -114 38 -244 43 -1024 43 l-743 0 0 -115z m1309 -256 c176 -55 263
-176 248 -345 -11 -120 -84 -218 -204 -275 -76 -36 -179 -56 -318 -61 l-100
-3 -3 352 -2 352 87 3 c139 5 223 -2 292 -23z m-58 -1025 c128 -13 284 -97
337 -182 54 -86 65 -130 60 -244 -4 -92 -8 -111 -38 -171 -37 -76 -85 -124
-161 -163 -94 -47 -134 -55 -331 -61 l-188 -6 0 416 0 416 73 4 c74 3 166 0
248 -9z"/>
</g>
</svg>
