<?xml version="1.0" standalone="no"?>
<!DOCTYPE svg PUBLIC "-//W3C//DTD SVG 20010904//EN"
 "http://www.w3.org/TR/2001/REC-SVG-20010904/DTD/svg10.dtd">
<svg version="1.0" xmlns="http://www.w3.org/2000/svg"
 width="512.000000pt" height="512.000000pt" viewBox="0 0 512.000000 512.000000" fill="currentColor"
 preserveAspectRatio="xMidYMid meet">

<g transform="translate(0.000000,512.000000) scale(0.100000,-0.100000)" stroke="none">
<path d="M1888 4789 c-58 -30 -78 -79 -78 -189 l0 -90 -395 0 c-377 0 -398 -1
-435 -20 -26 -13 -47 -34 -60 -60 -19 -38 -20 -58 -20 -578 0 -536 -6 -692
-36 -912 -92 -684 -374 -1331 -741 -1699 -52 -51 -100 -106 -108 -122 -34 -64
-3 -154 65 -189 37 -19 58 -20 430 -20 l390 0 0 -240 c0 -275 5 -297 78 -338
l40 -22 1991 0 c1976 0 1992 0 2031 20 26 13 47 34 60 60 20 39 20 55 20 2020
0 1965 0 1981 -20 2020 -13 26 -34 47 -60 60 -37 19 -58 20 -430 20 l-390 0 0
90 c0 112 -20 159 -80 190 -50 25 -90 25 -140 0 -60 -31 -80 -78 -80 -190 l0
-90 -380 0 -380 0 0 90 c0 112 -20 159 -80 190 -50 25 -90 25 -140 0 -60 -31
-80 -78 -80 -190 l0 -90 -375 0 -375 0 0 90 c0 112 -20 159 -80 190 -49 25
-94 25 -142 -1z m-78 -669 c0 -71 4 -99 20 -130 23 -45 80 -80 130 -80 50 0
107 35 130 80 16 31 20 59 20 130 l0 90 375 0 375 0 0 -90 c0 -112 20 -159 80
-190 50 -25 90 -25 140 0 60 31 80 78 80 190 l0 90 380 0 380 0 0 -90 c0 -71
4 -99 20 -130 23 -45 80 -80 130 -80 50 0 107 35 130 80 16 31 20 59 20 130
l0 90 300 0 300 0 0 -300 0 -300 -1810 0 -1810 0 0 300 0 300 305 0 305 0 0
-90z m3006 -862 c-3 -29 -8 -91 -11 -138 -3 -47 -15 -148 -26 -225 -91 -636
-335 -1202 -694 -1608 l-68 -77 -1764 0 -1764 0 34 43 c124 152 311 491 410
742 136 346 228 754 252 1120 3 50 8 114 11 143 l5 52 1810 0 1810 0 -5 -52z
m4 -2003 l0 -645 -1810 0 -1810 0 0 150 0 150 1450 0 c1683 0 1473 -18 1621
138 174 183 328 412 462 684 45 92 83 167 85 167 1 1 2 -289 2 -644z"/>
</g>
</svg>
