<svg xmlns="http://www.w3.org/2000/svg" xmlns:xlink="http://www.w3.org/1999/xlink" xml:space="preserve" version="1.1" style="shape-rendering:geometricPrecision;text-rendering:geometricPrecision;image-rendering:optimizeQuality;" viewBox="0 -55 309 309" x="0px" y="0px" fill-rule="evenodd" clip-rule="evenodd" fill="currentColor">
  <g>
    <path class="fil0" d="M304 88c5,7 5,17 0,23 -36,44 -91,89 -150,89 -59,0 -115,-44 -150,-89 -5,-6 -5,-16 0,-23 36,-44 91,-88 150,-88 59,0 115,44 150,88zm-82 12c0,-38 -30,-69 -68,-69 -38,0 -68,31 -68,69 0,38 30,68 68,68 38,0 68,-30 68,-68z" />
    <path class="fil0" d="M154 59c-8,0 -15,2 -21,6 19,14 2,44 -20,34 0,23 18,42 41,42 23,0 41,-18 41,-41 0,-23 -18,-41 -41,-41z" />
  </g>
</svg>