<?xml version="1.0" standalone="no"?>
<!DOCTYPE svg PUBLIC "-//W3C//DTD SVG 20010904//EN"
 "http://www.w3.org/TR/2001/REC-SVG-20010904/DTD/svg10.dtd">
<svg version="1.0" xmlns="http://www.w3.org/2000/svg"
 width="256.000000pt" height="256.000000pt" viewBox="0 0 256.000000 256.000000" fill="currentColor"
 preserveAspectRatio="xMidYMid meet">

<g transform="translate(0.000000,256.000000) scale(0.100000,-0.100000)" stroke="none">
<path d="M1083 2538 c-15 -15 -33 -66 -59 -174 -37 -148 -39 -154 -69 -165
-16 -7 -55 -23 -85 -36 l-56 -24 -129 76 c-71 41 -135 75 -142 75 -8 0 -26 -6
-41 -14 -36 -19 -238 -226 -246 -252 -9 -29 1 -51 82 -186 l70 -116 -29 -74
-30 -74 -154 -38 c-113 -28 -159 -43 -174 -60 -20 -21 -21 -33 -21 -196 0
-163 1 -175 21 -196 15 -17 61 -32 175 -60 l154 -38 20 -54 c11 -30 27 -66 35
-82 14 -28 13 -32 -55 -146 -39 -65 -70 -129 -70 -143 0 -40 244 -281 284
-281 17 0 73 27 144 69 111 67 116 69 143 56 15 -8 51 -24 81 -35 l54 -20 38
-154 c28 -114 43 -160 60 -175 21 -20 33 -21 196 -21 163 0 175 1 196 21 17
15 32 61 60 175 l38 154 54 20 c30 11 67 27 83 36 29 14 31 14 147 -56 74 -44
129 -70 147 -70 24 0 52 22 157 128 94 93 128 134 128 152 0 13 -31 77 -70
141 -38 65 -70 121 -70 125 0 4 14 42 30 84 l31 76 153 38 c114 28 160 43 175
60 20 21 21 33 21 196 0 163 -1 175 -21 196 -15 17 -61 32 -175 60 l-154 38
-20 54 c-11 30 -27 66 -34 80 -13 26 -10 33 60 151 41 69 74 131 74 138 0 31
-34 73 -143 181 -83 82 -121 112 -139 112 -13 0 -80 -33 -149 -74 -118 -70
-125 -73 -151 -60 -14 7 -50 23 -80 34 l-54 20 -38 154 c-28 114 -43 160 -60
175 -21 20 -33 21 -197 21 -165 0 -176 -1 -196 -22z m338 -754 c86 -25 163
-71 227 -136 103 -102 152 -221 152 -368 0 -147 -49 -266 -152 -368 -102 -103
-221 -152 -368 -152 -147 0 -266 49 -368 152 -103 102 -152 221 -152 368 0
145 49 265 148 365 105 106 220 154 368 155 54 0 112 -6 145 -16z"/>
</g>
</svg>
