<?xml version="1.0" standalone="no"?>
<!DOCTYPE svg PUBLIC "-//W3C//DTD SVG 20010904//EN"
 "http://www.w3.org/TR/2001/REC-SVG-20010904/DTD/svg10.dtd">
<svg version="1.0" xmlns="http://www.w3.org/2000/svg"
 width="256.000000pt" height="256.000000pt" viewBox="0 0 256.000000 256.000000" fill="currentColor"
 preserveAspectRatio="xMidYMid meet">

<g transform="translate(0.000000,256.000000) scale(0.100000,-0.100000)" stroke="none">
<path d="M817 2548 c-16 -12 -77 -237 -77 -283 0 -43 11 -45 282 -45 142 0
258 -3 258 -7 0 -5 -101 -426 -224 -938 l-223 -930 -246 -3 c-179 -2 -248 -6
-255 -15 -6 -6 -25 -74 -43 -149 -32 -134 -32 -138 -14 -158 18 -20 27 -20
735 -20 557 0 720 3 733 13 16 11 77 236 77 282 0 43 -12 45 -278 45 l-254 0
7 38 c4 20 104 442 223 937 l217 900 241 3 c177 2 245 6 252 15 6 6 25 74 43
149 32 134 32 138 14 158 -18 20 -27 20 -735 20 -557 0 -720 -3 -733 -12z"/>
</g>
</svg>
