<?xml version="1.0" standalone="no"?>
<!DOCTYPE svg PUBLIC "-//W3C//DTD SVG 20010904//EN"
 "http://www.w3.org/TR/2001/REC-SVG-20010904/DTD/svg10.dtd">
<svg version="1.0" xmlns="http://www.w3.org/2000/svg"
 width="512.000000pt" height="512.000000pt" viewBox="0 0 512.000000 512.000000" fill="currentColor"
 preserveAspectRatio="xMidYMid meet">

<g transform="translate(0.000000,512.000000) scale(0.100000,-0.100000)" stroke="none">
<path d="M2415 5113 c-480 -57 -875 -296 -1136 -686 -220 -329 -306 -758 -219
-1097 104 -408 393 -964 880 -1695 191 -286 606 -864 620 -864 14 0 437 590
626 874 557 836 858 1454 904 1856 18 153 -17 404 -80 584 -198 561 -688 953
-1280 1025 -80 9 -249 11 -315 3z m302 -1044 c257 -83 407 -360 335 -620 -52
-189 -218 -336 -414 -369 -297 -51 -588 195 -588 497 0 353 333 598 667 492z"/>
<path d="M825 2247 c-388 -188 -666 -440 -771 -697 -131 -322 -17 -673 306
-943 440 -367 1155 -581 2025 -603 1034 -27 2002 234 2444 661 188 182 274
351 288 570 25 393 -276 749 -846 1002 l-95 41 -83 -156 c-47 -86 -105 -190
-130 -230 -25 -40 -44 -74 -42 -76 2 -1 48 -19 101 -40 360 -140 581 -329 582
-496 1 -269 -576 -584 -1291 -705 -816 -139 -1732 -40 -2328 250 -303 148
-469 309 -469 455 0 154 184 325 529 491 83 40 151 73 152 74 2 1 -27 51 -63
111 -36 60 -92 162 -125 227 -33 64 -62 117 -67 117 -4 0 -56 -24 -117 -53z"/>
</g>
</svg>
