<svg xmlns="http://www.w3.org/2000/svg" xmlns:xlink="http://www.w3.org/1999/xlink" version="1.1" x="0px" y="0px" viewBox="0 0 100 100" xml:space="preserve" fill="currentColor">
  <g>
    <path d="M10.2,5.6c0.1,0.1,0.2,0.2,0.2,0.3C22.1,17.6,33.9,29.3,45.6,41c0.2,0.2,0.4,0.2,0.6,0.1c4.6-2,10-0.1,12.4,4.3   c1.5,2.8,1.6,5.6,0.4,8.5c-0.1,0.2-0.1,0.4,0.1,0.6c3,3,5.9,5.9,8.9,8.9c0.1,0.1,0.1,0.2,0.3,0.3c3.4-4.6,4.9-9.7,4.5-15.3   C72.2,42.7,70,37.9,66,33.9c1.6-1.5,3.1-3,4.7-4.5c5.1,5.3,8,11.6,8.4,19c0.4,7.4-1.8,14-6.3,19.8c3.1,3.1,6.1,6.1,9.2,9.2   c7-8.4,10.5-18.1,10-29.1c-0.4-11-4.7-20.4-12.3-28.2c1.6-1.5,3.1-3,4.7-4.5c8.9,9.2,13.7,20,14.1,32.8   c0.4,12.7-3.7,23.9-11.9,33.6c2.6,2.6,5.2,5.2,7.8,7.8c-1.6,1.6-3.1,3.1-4.6,4.6C61.8,66.4,33.7,38.2,5.6,10.2   C7.1,8.6,8.6,7.1,10.2,5.6z" />
    <path d="M9.4,23.2c1.6,1.6,3.1,3.1,4.7,4.7c-5,8.3-7.1,17.3-6,27c1.1,9.7,5.2,18,12,24.9c-1.5,1.5-3,3-4.6,4.6   C-0.9,68.4-3.2,41.7,9.4,23.2z" />
    <path d="M33.9,66.1c-1.5,1.5-3,3-4.6,4.6c-3.9-3.9-6.5-8.6-7.7-14c-1.5-6.6-0.8-13,2.1-19.2c0.1,0.1,0.2,0.2,0.2,0.2   c1.5,1.5,3,3,4.5,4.5c0.2,0.2,0.2,0.3,0.1,0.6c-0.8,2.4-1.2,4.9-1.2,7.5c0,2.5,0.4,5,1.3,7.4c1,2.8,2.4,5.2,4.4,7.4   C33.3,65.4,33.6,65.7,33.9,66.1z" />
  </g>
</svg>