<?xml version="1.0" standalone="no"?>
<!DOCTYPE svg PUBLIC "-//W3C//DTD SVG 20010904//EN"
 "http://www.w3.org/TR/2001/REC-SVG-20010904/DTD/svg10.dtd">
<svg version="1.0" xmlns="http://www.w3.org/2000/svg"
 width="256.000000pt" height="256.000000pt" viewBox="0 0 256.000000 256.000000" fill="currentColor"
 preserveAspectRatio="xMidYMid meet">

<g transform="translate(0.000000,256.000000) scale(0.100000,-0.100000)" stroke="none">
<path d="M896 2515 c-13 -14 -40 -66 -61 -116 -25 -59 -46 -94 -59 -100 -12
-5 -112 -20 -223 -34 -223 -28 -245 -33 -267 -67 -11 -17 -56 -158 -56 -175 0
-2 473 -3 1051 -3 l1051 0 -6 28 c-29 117 -48 162 -74 176 -15 8 -122 26 -237
41 -116 14 -218 29 -228 33 -9 4 -37 52 -62 107 -25 55 -54 108 -66 118 -19
15 -53 17 -381 17 l-359 0 -23 -25z"/>
<path d="M375 1784 c-13 -13 -15 -29 -10 -78 3 -33 32 -413 65 -843 33 -430
64 -793 69 -806 5 -13 17 -27 26 -31 28 -10 1494 -7 1514 4 10 5 22 17 25 26
5 13 136 1655 136 1703 0 5 -7 17 -16 25 -14 14 -110 16 -904 16 -809 0 -890
-1 -905 -16z"/>
</g>
</svg>
